<svg id="Capa_1" data-name="Capa 1" xmlns="http://www.w3.org/2000/svg" viewBox="0 0 31.09 48"><defs><style>.cls-1{fill:#0a3871;fill-rule:evenodd;}</style></defs><path class="cls-1" d="M67.46,23.75a2,2,0,0,1-.31.78,1.85,1.85,0,0,1-.62.56,6.1,6.1,0,0,1-1.36.64c-.93.32-1.91.64-3,1s-2.07.75-2.94,1c-1.09.37-2.13.69-3.11,1.06a9.2,9.2,0,0,0-2.07,1.23,8.85,8.85,0,0,0-1.53,1.82,5.54,5.54,0,0,0-.71,2.83c0,2.24.54,3.95,1.64,5s3.11,1.65,6.1,1.65,5.13-.59,6.22-1.76a7,7,0,0,0,1.64-5V23.75ZM59.6.1c5.35,0,9.28,1,11.78,3.1a9.58,9.58,0,0,1,3.77,7.74V37.31a12.61,12.61,0,0,1-.6,3.53,7.61,7.61,0,0,1-2.35,3.52A13,13,0,0,1,67.46,47a24.35,24.35,0,0,1-7.85,1.07A24.42,24.42,0,0,1,51.75,47,13.16,13.16,0,0,1,47,44.36a8.55,8.55,0,0,1-2.34-3.52,12.29,12.29,0,0,1-.61-3.52V33.1A11,11,0,0,1,45.86,27,9.79,9.79,0,0,1,50.93,23c1.09-.38,2.35-.75,3.77-1.23s2.72-1,4-1.39,2.46-.86,3.44-1.23c.59-.24,1.19-.45,1.8-.64L65,18a4.84,4.84,0,0,0,1.15-1,7.3,7.3,0,0,0,1-1.44,4,4,0,0,0,.43-1.87V12.06a4.28,4.28,0,0,0-.38-1.82,4.28,4.28,0,0,0-1.25-1.76,6.81,6.81,0,0,0-2.4-1.28,12.62,12.62,0,0,0-3.77-.48c-3.05,0-5.07.59-6.16,1.81A6.67,6.67,0,0,0,52,12.43a.56.56,0,0,1-.6.54l-6.65.1a.55.55,0,0,1-.42-.17.6.6,0,0,1-.18-.42V10.94A10.07,10.07,0,0,1,45,6.72,8.84,8.84,0,0,1,47.77,3.3,14.07,14.07,0,0,1,52.63,1a22,22,0,0,1,7-.91Z" transform="translate(-44.06 -0.1)"/></svg>